<svg width="125" height="40" viewBox="0 0 125 40" fill="none" xmlns="http://www.w3.org/2000/svg">
<path d="M65.1622 30.6293C65.977 30.9648 66.8149 31.2599 67.6546 31.5384C68.4944 31.8169 69.3436 32.0717 70.1964 32.3088C71.9 32.7891 73.6234 33.198 75.3667 33.5354C77.1056 33.8685 78.8557 34.144 80.6154 34.336C82.3751 34.528 84.1425 34.6442 85.9117 34.6714C86.3538 34.6833 86.796 34.6821 87.2381 34.6839C87.6803 34.6856 88.123 34.6762 88.5652 34.6608C89.0073 34.6453 89.4489 34.6264 89.8904 34.6068C90.332 34.5873 90.7735 34.5541 91.2139 34.5156C91.6543 34.477 92.0946 34.4356 92.535 34.3935C92.9736 34.3408 93.4139 34.2951 93.8513 34.2311C94.7279 34.1126 95.6009 33.9704 96.4698 33.808L97.1235 33.6818L97.7718 33.5419L98.0957 33.472L98.4184 33.395L99.0632 33.2403C99.4905 33.1265 99.9208 33.0216 100.345 32.896C100.557 32.8368 100.771 32.7775 100.982 32.7123L101.616 32.5167C101.828 32.4575 102.038 32.3828 102.247 32.3141C102.457 32.2453 102.668 32.1772 102.877 32.1037C103.293 31.9538 103.712 31.8122 104.125 31.6492C104.954 31.3399 105.767 30.9879 106.576 30.6293L106.668 30.8249L106.395 31.0305L106.119 31.232C106.027 31.2996 105.934 31.3648 105.84 31.4305C105.747 31.4963 105.652 31.5573 105.558 31.6213L104.985 31.9941C104.89 32.0569 104.791 32.1126 104.693 32.1719L104.4 32.3496C104.011 32.5902 103.606 32.7976 103.205 33.0187C103.004 33.1283 102.798 33.2249 102.593 33.328C102.389 33.4311 102.184 33.5325 101.976 33.6273C101.144 34.0148 100.297 34.3615 99.4346 34.6791C99.2189 34.7562 99.0032 34.835 98.7851 34.9073L98.4582 35.0175L98.1296 35.1206L97.4711 35.3262C97.2506 35.392 97.029 35.4525 96.8073 35.5129C93.2541 36.4806 89.5499 36.8966 85.8725 36.8296C84.9537 36.8071 84.0355 36.7633 83.1209 36.6916C82.8921 36.6732 82.6639 36.6495 82.4357 36.6264C82.2075 36.6033 81.9793 36.5807 81.7517 36.5535C81.2965 36.5013 80.8412 36.4486 80.3884 36.3757C79.4833 36.2353 78.58 36.0877 77.6868 35.891C77.4633 35.8444 77.2403 35.7956 77.0176 35.7446C76.7947 35.6936 76.5713 35.6468 76.3502 35.5899C75.9069 35.4785 75.4655 35.3624 75.0261 35.2415C73.2699 34.7541 71.5485 34.1495 69.8737 33.4317C69.6657 33.3387 69.4577 33.248 69.2509 33.1532C69.0441 33.0584 68.8349 32.9665 68.6322 32.8652C68.2228 32.6655 67.8145 32.467 67.4139 32.2495C66.6046 31.8284 65.8247 31.3532 65.0796 30.8273L65.1622 30.6293Z" fill="#66AC47"/>
<path d="M22.8374 5.34166L18.2115 21.6249H16.3894L12.2776 7.74107L8.0724 21.6249L6.29667 21.6486L1.76465 5.34166H3.5166L7.25466 19.6231L11.4366 5.34166H13.2587L17.3236 19.6231L21.0849 5.34166H22.8374Z" fill="#093F63"/>
<path d="M26.5165 21.0073C25.5608 20.4746 24.7752 19.6838 24.2499 18.7259C23.6972 17.7382 23.4209 16.5846 23.4209 15.2651C23.4209 13.9456 23.7012 12.7926 24.2618 11.8062C24.7956 10.8463 25.589 10.0552 26.5516 9.5229C27.5167 8.9872 28.5991 8.71935 29.7988 8.71935C30.9984 8.71935 32.0848 8.9872 33.0578 9.5229C34.0235 10.051 34.8177 10.8431 35.347 11.8062C35.9017 12.7938 36.179 13.9468 36.179 15.2651C36.179 16.5688 35.8987 17.7181 35.3381 18.7128C34.8024 19.682 33.9998 20.4782 33.0252 21.0073C32.0442 21.5434 30.9547 21.8115 29.7566 21.8115C28.5585 21.8115 27.4785 21.5434 26.5165 21.0073ZM32.088 19.8222C32.8047 19.4417 33.3849 18.8671 33.8286 18.0983C34.2724 17.3295 34.4944 16.3859 34.4948 15.2675C34.4948 14.1495 34.2769 13.2061 33.8411 12.4373C33.4053 11.6685 32.829 11.0939 32.1123 10.7134C31.3909 10.3385 30.5894 10.1428 29.7759 10.1428C28.9624 10.1428 28.1609 10.3385 27.4395 10.7134C26.7231 11.0939 26.1509 11.6685 25.7226 12.4373C25.2943 13.2061 25.0797 14.1487 25.079 15.2651C25.079 16.3831 25.2931 17.3268 25.7214 18.0959C26.1497 18.8651 26.7182 19.4397 27.427 19.8198C28.1413 20.2017 28.9407 20.398 29.7512 20.3905C30.5656 20.3972 31.3689 20.2011 32.088 19.8198V19.8222Z" fill="#093F63"/>
<path d="M40.3465 21.0073C39.391 20.4746 38.6056 19.6838 38.0805 18.7259C37.5259 17.7382 37.2485 16.585 37.2485 15.2663C37.2485 13.9476 37.5302 12.7942 38.0936 11.8062C38.6277 10.8465 39.421 10.0554 40.3834 9.5229C41.3493 8.9872 42.4317 8.71935 43.6306 8.71935C44.8294 8.71935 45.9156 8.9872 46.889 9.5229C47.8548 10.051 48.6492 10.8431 49.1788 11.8062C49.7335 12.7938 50.0108 13.9468 50.0108 15.2651C50.0108 16.5688 49.7305 17.7181 49.1699 18.7128C48.6344 19.6821 47.8318 20.4783 46.8569 21.0073C45.8756 21.5434 44.7861 21.8115 43.5884 21.8115C42.3907 21.8115 41.3101 21.5434 40.3465 21.0073ZM45.9186 19.8222C46.6345 19.4417 47.2145 18.8671 47.6586 18.0983C48.1028 17.3295 48.3248 16.3859 48.3248 15.2675C48.3248 14.1495 48.1069 13.2061 47.6711 12.4373C47.2353 11.6685 46.659 11.0939 45.9423 10.7134C45.2211 10.3383 44.4197 10.1424 43.6062 10.1424C42.7927 10.1424 41.9913 10.3383 41.2701 10.7134C40.5534 11.0939 39.9809 11.6685 39.5526 12.4373C39.1243 13.2061 38.9102 14.1495 38.9102 15.2675C38.9102 16.3855 39.1243 17.3291 39.5526 18.0983C39.9809 18.8675 40.5494 19.4421 41.2582 19.8222C41.9727 20.2042 42.7723 20.4004 43.583 20.3928C44.3972 20.3985 45.2 20.2016 45.9186 19.8198V19.8222Z" fill="#093F63"/>
<path d="M109.533 4.38517V21.6237H107.897V4.38517H109.533Z" fill="#66AC47"/>
<path d="M62.2251 4.38517V11.6545C61.8043 10.7854 61.1425 10.0788 60.2396 9.5348C59.3367 8.9908 58.3242 8.719 57.2022 8.7194C56.0346 8.7194 54.9873 8.98725 54.0602 9.52295C53.1331 10.0587 52.4049 10.8197 51.8756 11.8062C51.3459 12.7939 51.0811 13.9395 51.0811 15.2432C51.0811 16.5469 51.3419 17.6962 51.8637 18.6909C52.3855 19.6845 53.1097 20.4533 54.0364 20.9973C54.9631 21.5413 56.0107 21.8131 57.179 21.8127C58.3783 21.8127 59.4217 21.5293 60.3091 20.9624C60.5345 20.8198 60.7494 20.6614 60.9521 20.4883L60.0227 19.6741C59.9757 19.7037 59.9282 19.7333 59.88 19.76C59.1531 20.1803 58.326 20.3977 57.4857 20.3893C56.5824 20.3893 55.7723 20.1835 55.0556 19.7718C54.3389 19.3602 53.7744 18.7623 53.3619 17.9781C52.9495 17.1939 52.7433 16.2815 52.7433 15.2409C52.7433 14.1849 52.9495 13.2725 53.3619 12.5037C53.7443 11.7666 54.3326 11.1557 55.0556 10.7449C55.7723 10.3411 56.5824 10.1392 57.4857 10.1392C58.3259 10.1309 59.1529 10.3481 59.88 10.768C60.61 11.1934 61.2052 11.815 61.5975 12.5618C62.0175 13.3385 62.2277 14.2392 62.2281 15.264C62.2281 15.3392 62.2281 15.4139 62.2245 15.488V18.7911L62.2281 18.7828V21.5917L62.2661 21.6249H63.8635V4.38517H62.2251Z" fill="#093F63"/>
<path d="M76.2422 8.90542V11.7013C75.8527 10.8321 75.2188 10.1177 74.3405 9.55786C73.4621 8.99806 72.4138 8.71856 71.1955 8.71935C70.0275 8.71935 68.9802 8.9872 68.0535 9.5229C67.1268 10.0586 66.4026 10.8197 65.8808 11.8062C65.3586 12.7938 65.0977 13.9395 65.0981 15.2432C65.0985 16.5469 65.3594 17.6961 65.8808 18.6909C66.4026 19.6845 67.1268 20.4533 68.0535 20.9973C68.9802 21.5413 70.0198 21.8131 71.1723 21.8127C72.3871 21.8127 73.4344 21.5292 74.3143 20.9623C74.5413 20.8165 74.7579 20.6553 74.9627 20.4799L74.038 19.674C73.991 19.7036 73.9429 19.7333 73.8948 19.7605C73.1676 20.1809 72.3403 20.3982 71.4998 20.3899C70.5965 20.3899 69.7867 20.184 69.0703 19.7724C68.354 19.3607 67.7895 18.7628 67.3766 17.9786C66.9638 17.1944 66.7574 16.282 66.7574 15.2414C66.7574 14.1854 66.9638 13.273 67.3766 12.5042C67.7895 11.7354 68.354 11.1492 69.0703 10.7454C69.7867 10.3417 70.5965 10.1398 71.4998 10.1398C72.3402 10.1315 73.1674 10.3487 73.8948 10.7685C74.6245 11.1942 75.2195 11.816 75.6117 12.5629C76.0324 13.3396 76.2426 14.2403 76.2422 15.2651C76.2422 15.3078 76.2422 15.3499 76.2422 15.3919V18.8094V21.5946L76.2826 21.6296H77.8777V8.90542H76.2422Z" fill="#66AC47"/>
<path d="M91.8359 11.8062C91.3141 10.8185 90.5899 10.0574 89.6632 9.5229C88.7365 8.98838 87.6969 8.72053 86.5444 8.71935C85.3296 8.71935 84.2823 9.0028 83.4024 9.56972C82.5224 10.1366 81.88 10.8477 81.4751 11.703V8.90542H79.8628V27.6355H81.4763V21.6296L81.4032 21.6628L81.4763 21.5988V18.8296L81.4905 18.8592V15.7185C81.4816 15.5709 81.4763 15.4222 81.4763 15.2675C81.4763 14.2427 81.6865 13.342 82.1068 12.5653C82.4991 11.8186 83.094 11.197 83.8237 10.7715C84.5511 10.3516 85.3783 10.1345 86.2187 10.1428C87.122 10.1428 87.9318 10.3446 88.6481 10.7484C89.3712 11.1592 89.9595 11.7701 90.3418 12.5072C90.7547 13.276 90.9611 14.1884 90.9611 15.2444C90.9611 16.285 90.7547 17.1974 90.3418 17.9816C89.929 18.7658 89.3644 19.3637 88.6481 19.7753C87.9318 20.1874 87.122 20.3932 86.2187 20.3928C85.3782 20.4012 84.5509 20.1838 83.8237 19.7635C83.7779 19.7368 83.7328 19.7096 83.6876 19.6817L82.7635 20.4847C82.9705 20.6586 83.1889 20.8186 83.4172 20.9635C84.3047 21.5304 85.348 21.8139 86.5473 21.8139C87.6998 21.8139 88.7394 21.5421 89.6661 20.9985C90.5928 20.4549 91.3171 19.6861 91.8388 18.6921C92.3606 17.6985 92.6215 16.5493 92.6215 15.2444C92.6215 13.9395 92.3596 12.7934 91.8359 11.8062Z" fill="#66AC47"/>
<path d="M105.853 11.8062C105.331 10.8185 104.607 10.0574 103.681 9.5229C102.754 8.98838 101.715 8.72053 100.562 8.71935C99.3464 8.71935 98.2989 9.0028 97.4193 9.56972C96.5398 10.1366 95.8974 10.8477 95.4921 11.703V8.90542H93.8804V27.6355H95.4921V21.6296L95.4124 21.6663L95.4921 21.597V18.8296L95.4998 18.8456V15.5964C95.495 15.4873 95.4921 15.3771 95.4921 15.2651C95.4921 14.2403 95.7025 13.3396 96.1232 12.5629C96.5151 11.816 97.1102 11.1943 97.8401 10.7691C98.5673 10.3492 99.3942 10.1321 100.234 10.1404C101.138 10.1404 101.948 10.3423 102.665 10.746C103.381 11.1498 103.945 11.7356 104.356 12.5036C104.769 13.2724 104.975 14.1848 104.976 15.2408C104.976 16.2814 104.769 17.1938 104.356 17.978C103.944 18.7622 103.379 19.3601 102.663 19.7718C101.946 20.1838 101.136 20.3897 100.233 20.3893C99.3924 20.3977 98.5653 20.1803 97.8383 19.7599C97.7908 19.7327 97.7444 19.7042 97.6981 19.6752L96.7745 20.4782C96.9814 20.6531 97.1998 20.8141 97.4283 20.9599C98.3161 21.5269 99.3597 21.8103 100.559 21.8103C101.711 21.8103 102.751 21.5385 103.678 20.9949C104.605 20.4513 105.329 19.6825 105.85 18.6885C106.372 17.695 106.633 16.5457 106.633 15.2408C106.634 13.9359 106.374 12.791 105.853 11.8062Z" fill="#66AC47"/>
<path d="M123.036 14.6127C123.036 13.5259 122.79 12.5359 122.3 11.6426C121.811 10.751 121.083 10.0124 120.197 9.50929C119.286 8.98188 118.223 8.71798 117.008 8.71758C115.794 8.71719 114.711 8.98109 113.761 9.50929C112.812 10.0364 112.04 10.8305 111.542 11.7925C111.012 12.7861 110.747 13.9431 110.747 15.2634C110.747 16.5837 111.016 17.7378 111.554 18.7259C112.063 19.6839 112.837 20.4761 113.784 21.0085C114.735 21.5446 115.81 21.8127 117.008 21.8127C118.551 21.8127 119.832 21.4206 120.852 20.6364C121.85 19.8839 122.556 18.8093 122.849 17.5958H121.12C120.907 18.4369 120.397 19.1732 119.683 19.6699C118.959 20.1835 118.067 20.4403 117.009 20.4403C116.23 20.4477 115.461 20.268 114.766 19.9164C114.079 19.5649 113.504 19.0282 113.108 18.3674C112.69 17.689 112.457 16.8726 112.408 15.9182C112.372 15.4646 112.372 15.0088 112.408 14.5552C112.504 13.1496 112.979 12.0598 113.834 11.2859C114.689 10.512 115.725 10.1236 116.941 10.1208C117.719 10.1137 118.487 10.2893 119.184 10.6334C119.863 10.9688 120.427 11.4955 120.808 12.1481C121.204 12.8162 121.395 13.6237 121.38 14.5706H115.464L114.132 15.8986H122.992C123.021 15.6007 123.036 15.1721 123.036 14.6127Z" fill="#66AC47"/>
</svg>
