 <svg  version="1.0" xmlns="http://www.w3.org/2000/svg"  width="300.000000pt" height="336.000000pt" viewBox="0 0 300.000000 336.000000"  preserveAspectRatio="xMidYMid meet">  <g transform="translate(0.000000,336.000000) scale(0.100000,-0.100000)" fill="#f44343" stroke="none"> <path d="M1455 3200 c-11 -5 -56 -23 -100 -40 -44 -17 -101 -44 -127 -60 l-48 -29 0 34 c0 19 -3 35 -6 35 -3 0 -30 -22 -60 -49 -50 -45 -57 -49 -102 -48 -61 2 -123 -35 -152 -94 l-21 -40 -67 7 -68 6 -94 -84 c-147 -132 -206 -198 -221 -249 -10 -36 -36 -67 -133 -164 -164 -163 -184 -206 -226 -485 l-21 -138 31 -61 c33 -67 84 -213 95 -274 5 -33 3 -39 -14 -44 -18 -5 -21 -13 -21 -59 0 -46 13 -84 89 -256 48 -112 99 -233 112 -270 13 -38 29 -68 35 -68 20 0 34 -25 53 -93 41 -148 101 -202 233 -209 63 -4 85 -10 115 -31 53 -36 106 -57 147 -57 33 0 186 -72 258 -122 17 -12 36 -17 48 -13 17 5 20 2 20 -20 0 -14 4 -24 8 -21 24 15 253 25 332 14 47 -6 114 -11 150 -12 51 -1 78 -7 119 -29 62 -32 81 -34 81 -8 0 20 30 34 100 46 31 6 39 2 65 -27 27 -29 30 -31 33 -13 9 64 10 65 56 65 41 0 43 2 39 25 -4 19 7 38 51 88 32 35 68 70 81 77 21 11 26 10 49 -16 14 -16 26 -23 26 -16 0 18 -18 52 -42 78 l-19 21 46 13 c37 10 48 10 62 -1 15 -12 16 -12 10 5 -9 23 7 36 46 36 42 0 64 16 71 50 3 18 25 55 49 83 24 29 63 81 87 116 45 67 172 322 164 330 -7 7 -83 -70 -106 -107 -14 -23 -26 -32 -38 -29 -12 3 -20 -2 -24 -17 -9 -35 -7 -36 29 -15 23 14 35 17 35 9 0 -23 -61 -126 -131 -220 -39 -52 -79 -111 -89 -131 -16 -30 -26 -37 -60 -43 -22 -3 -40 -10 -40 -15 0 -5 -17 -11 -39 -15 -45 -7 -80 -32 -85 -62 -2 -11 -36 -51 -75 -89 -40 -38 -74 -79 -77 -92 -3 -12 -16 -25 -27 -29 -12 -4 -34 -16 -49 -27 -23 -17 -32 -19 -52 -9 -29 13 -129 -9 -158 -34 -15 -14 -22 -14 -75 6 -68 26 -120 30 -385 33 -139 2 -201 6 -210 15 -7 7 -18 12 -25 12 -7 0 -50 20 -95 45 -116 65 -167 87 -213 92 -38 4 -68 17 -157 63 -21 11 -73 24 -117 29 -50 5 -88 15 -104 27 -38 29 -72 87 -92 156 -9 35 -27 74 -40 88 -20 22 -48 67 -50 80 -2 13 -49 128 -99 243 -58 132 -66 156 -41 123 8 -11 22 -21 30 -22 16 -2 12 9 -13 39 -12 13 -13 20 -4 29 9 9 15 2 27 -28 27 -69 40 -89 62 -92 12 -2 36 -22 52 -44 72 -98 484 -492 538 -514 17 -8 35 -18 38 -24 11 -17 119 -67 172 -78 26 -6 77 -14 113 -17 79 -7 171 -21 266 -41 64 -14 82 -14 180 1 105 15 110 17 151 57 22 22 45 38 51 34 5 -3 32 6 61 20 32 17 58 23 69 19 33 -15 136 -13 167 3 106 53 545 380 545 405 0 16 -2 16 -18 5 -10 -7 -80 -61 -157 -119 -156 -118 -343 -248 -392 -273 -31 -15 -34 -15 -52 3 -19 19 -20 19 -37 0 -22 -25 -44 -24 -44 1 0 29 -50 28 -57 -1 -6 -21 -7 -21 -20 -4 -12 17 -13 17 -13 -9 0 -24 -2 -27 -15 -16 -12 10 -16 9 -21 -4 -6 -14 -11 -12 -36 16 -23 26 -27 28 -17 8 9 -18 9 -25 0 -28 -6 -2 -11 -9 -11 -15 0 -7 -16 -24 -34 -39 -25 -20 -47 -28 -78 -29 -24 0 -65 -6 -93 -13 -42 -10 -62 -9 -124 6 -41 9 -120 22 -175 28 -184 20 -234 31 -306 66 l-72 34 21 26 c26 33 21 41 -13 19 -13 -9 -34 -15 -45 -13 -21 3 -461 423 -508 484 -14 19 -44 80 -68 136 -36 90 -45 103 -66 103 -20 0 -24 5 -24 30 0 23 4 30 18 28 10 0 16 4 14 11 -3 6 -10 59 -17 117 -13 101 -12 108 8 160 15 37 28 112 42 244 22 207 37 276 80 371 48 107 108 185 250 324 121 118 154 145 271 215 278 165 359 194 557 202 96 4 137 10 148 20 20 20 19 93 -1 93 -8 0 -34 14 -57 30 -45 33 -44 33 -73 20z m78 -55 c42 -29 49 -62 15 -69 -13 -3 -68 -7 -123 -10 -173 -9 -278 -46 -510 -179 -162 -93 -183 -109 -327 -248 -160 -156 -229 -256 -282 -407 -30 -84 -32 -96 -57 -320 -13 -119 -27 -201 -40 -235 -19 -48 -20 -59 -9 -149 11 -87 10 -101 -4 -123 -21 -31 -12 -71 20 -92 27 -17 31 -33 9 -33 -9 0 -27 -7 -41 -16 -13 -9 -26 -15 -27 -13 -30 43 -36 139 -11 160 32 27 -8 195 -81 338 -28 56 -30 75 -14 170 46 278 73 336 220 481 82 81 114 121 138 170 32 67 95 137 225 253 73 65 69 64 194 67 15 0 33 16 57 49 38 53 90 81 149 81 21 0 48 11 74 30 48 35 49 35 68 15 13 -13 24 -9 92 25 87 45 177 79 207 80 11 0 37 -11 58 -25z m-1250 -1932 c15 -31 24 -59 22 -61 -9 -9 -35 21 -44 52 -5 17 -12 39 -16 49 -4 9 -3 17 2 17 5 0 21 -26 36 -57z"/> <path d="M1885 3093 c-14 -16 -26 -19 -66 -15 -85 8 -126 -45 -83 -106 23 -33 109 -73 173 -79 61 -7 133 -47 326 -181 55 -39 144 -101 197 -138 l97 -67 40 21 41 22 0 -43 c0 -23 10 -71 22 -106 18 -50 33 -72 70 -104 56 -47 75 -96 59 -154 -9 -32 -7 -43 17 -86 15 -28 46 -70 69 -94 24 -24 43 -52 43 -63 0 -26 17 -35 37 -18 14 11 16 10 10 -12 -12 -53 -18 -166 -9 -189 7 -20 10 -7 15 60 6 74 13 107 42 219 l6 25 -23 -27 c-13 -16 -27 -28 -31 -28 -4 0 -7 32 -7 72 0 40 -7 131 -16 203 l-16 130 -155 249 c-106 168 -174 266 -211 302 -74 73 -182 138 -299 181 -86 31 -113 36 -215 41 -106 4 -118 3 -133 -15z m280 -33 c96 -28 218 -88 290 -144 74 -58 128 -123 195 -235 28 -47 89 -146 135 -220 46 -74 86 -146 89 -160 8 -46 27 -224 29 -283 2 -69 -9 -74 -51 -20 -50 64 -65 102 -63 163 3 72 -8 98 -63 151 -48 46 -79 106 -90 178 -10 63 -20 72 -73 64 -46 -7 -46 -7 -228 123 -250 177 -364 243 -420 243 -53 0 -142 42 -156 74 -18 39 2 56 65 56 29 0 59 7 70 15 30 23 184 20 271 -5z"/> <path d="M1575 1680 l0 -230 28 0 c27 0 27 1 27 63 0 57 11 87 32 87 4 0 32 -34 63 -75 48 -65 59 -75 86 -75 35 0 37 -4 -48 106 l-63 82 65 68 c61 66 63 69 38 72 -20 3 -37 -8 -75 -45 -27 -26 -59 -63 -71 -80 -12 -18 -24 -33 -27 -33 -3 0 -3 65 -2 145 l4 145 -29 0 -28 0 0 -230z"/> <path d="M1421 1886 c-15 -17 1 -56 23 -56 23 0 41 30 29 48 -14 23 -37 26 -52 8z"/> <path d="M689 1670 l-86 -220 27 0 c25 0 30 7 53 68 l25 67 88 0 89 0 24 -67 c23 -62 28 -68 53 -68 15 0 28 1 28 3 0 1 -38 99 -84 217 -114 291 -104 291 -217 0z m145 56 l33 -96 -69 0 c-62 0 -70 2 -65 18 28 85 63 180 65 177 2 -2 18 -46 36 -99z"/> <path d="M2260 1824 c-6 -14 -10 -29 -10 -33 0 -4 -11 -13 -25 -19 -14 -6 -25 -18 -25 -25 0 -10 8 -13 25 -9 l25 4 0 -121 c0 -117 1 -123 25 -147 21 -21 33 -25 73 -22 40 3 47 6 50 25 3 20 0 21 -34 16 -56 -9 -64 9 -64 140 l0 109 48 -3 c43 -3 47 -1 50 20 3 22 1 23 -47 20 l-51 -4 0 38 c0 44 -25 52 -40 11z"/> <path d="M1040 1615 l0 -165 30 0 30 0 0 120 c0 115 1 122 25 145 32 33 93 34 121 4 17 -18 19 -37 19 -145 l0 -124 28 0 27 0 0 120 c0 177 -19 210 -119 210 -39 0 -56 -6 -80 -26 l-31 -26 0 26 c0 21 -5 26 -25 26 l-25 0 0 -165z"/> <path d="M1420 1615 l0 -165 25 0 25 0 0 165 0 165 -25 0 -25 0 0 -165z"/> <path d="M1965 1771 c-45 -19 -84 -92 -84 -161 -1 -51 33 -116 71 -140 23 -14 50 -20 90 -20 73 0 108 13 108 41 0 18 -3 20 -27 13 -16 -5 -52 -9 -80 -9 -60 0 -87 19 -103 73 -12 43 -4 46 121 40 l99 -5 0 34 c0 46 -22 95 -55 121 -29 23 -99 29 -140 13z m115 -51 c11 -11 20 -29 20 -40 0 -11 0 -23 0 -26 0 -3 -36 -7 -80 -7 -60 -2 -80 1 -80 11 0 20 28 70 42 75 31 13 79 6 98 -13z"/> </g> </svg> 